<svg xmlns="http://www.w3.org/2000/svg" width="113.27033mm" height="23.50701mm" viewBox="0 0 321.08124 66.63404">
  <defs>
    <style>
      .cls-1 {
        fill: #fff;
      }
    </style>
  </defs>
  <g id="图层_2" data-name="图层 2">
    <g id="图层_2_复制_2" data-name="图层 2_复制 2">
      <g id="图层_3_复制_2" data-name="图层 3_复制 2">
        <g>
          <path class="cls-1" d="M49.27738,38.48508c-.433,1.54574.49253,2.629,1.75485,3.72824,4.02937,3.50891,7.97861,7.11024,11.94034,10.69627,2.721,2.46292,2.80084,4.41117.29839,7.02291q-1.87827,1.96034-3.84021,3.84014c-2.65163,2.54373-4.60238,2.51531-7.03419-.176q-13.349-14.77343-26.65924-29.58184c-1.5578-1.729-3.15974-3.42011-4.67008-5.18951-1.35916-1.59228-2.59094-3.05687-5.11429-2.717-1.72008.2317-2.36443-1.19951-2.17388-2.78476a5.22,5.22,0,0,0-1.74975-4.5623c-2.88387-2.96265-5.57438-6.113-8.35848-9.17345C1.35431,7.04138,1.34135,6.59612,3.63036,4.29875,5.992,1.92853,6.463,1.92023,8.93233,4.15356c10.22841,9.2509,20.48219,18.474,30.66647,27.77321a7.07286,7.07286,0,0,0,5.4687,2.16189C49.10556,33.90035,49.28067,34.2068,49.27738,38.48508Z"/>
          <path class="cls-1" d="M11.96247,37.71873c1.4505,5.40347,4.57124,8.53334,9.5659,10.086-4.77764,1.74587-8.28058,4.50593-9.65609,9.76584C10.13483,52.662,7.089,49.37481,1.85151,48.07513,8.68865,43.95986,8.68865,43.95986,11.96247,37.71873Z"/>
          <path class="cls-1" d="M55.38263,22.405c-1.515-2.74982-2.28176-5.12218-3.84823-6.70115-1.48216-1.494-3.80377-2.15511-6.42719-3.53565A13.51537,13.51537,0,0,0,55.1563,2.68561a14.08371,14.08371,0,0,0,9.65188,9.62006C59.97343,13.996,56.78345,17.025,55.38263,22.405Z"/>
          <path class="cls-1" d="M32.19716,66.634c-6.579-.57657-11.95584-1.85037-17.50218-5.50039-1.773-1.16684-.43563-1.88928-.05946-2.81566.61278-1.509,1.30756-.41417,1.92754-.01644,8.81048,5.65225,18.09006,6.67957,27.8194,2.73023a2.08033,2.08033,0,0,1,2.82473.67542c.80642.9616.93766,1.39234-.40093,1.98249A39.128,39.128,0,0,1,32.19716,66.634Z"/>
          <path class="cls-1" d="M62.27688,48.51038c-2.0797-1.054-2.5337-2.24071-1.65289-4.54276a28.09287,28.09287,0,0,0-.56915-21.64531,7.593,7.593,0,0,1-.62749-1.40863,2.92574,2.92574,0,0,1,1.38324-3.09359c1.18312-.59041,1.28343,1.0166,1.62745,1.72408,4.43857,9.12792,4.71467,18.36431.54632,27.673C62.78362,47.66538,62.513,48.08235,62.27688,48.51038Z"/>
          <path class="cls-1" d="M5.52335,15.94862c2.27953,1.38626,2.40183,2.737,1.2527,4.94311A27.22919,27.22919,0,0,0,4.65488,41.41819c.53525,1.89422-.142,2.5431-1.60386,2.92909-1.92721.50887-1.36469-1.28473-1.63984-2.0829C-1.86089,32.77283.992,24.26658,5.52335,15.94862Z"/>
          <path class="cls-1" d="M15.57116,6.232A34.74643,34.74643,0,0,1,35.00964,1.01266c-.54054,2.43749-1.49127,3.67327-4.14259,3.66449A20.31085,20.31085,0,0,0,20.71282,7.32857C18.52968,8.57882,17.00209,8.56548,15.57116,6.232Z"/>
          <path class="cls-1" d="M37.38,2.65129c.98676,2.94581,2.9296,4.69422,6.32858,5.77175-3.41611,1.00626-5.29644,2.72359-6.19628,6.27974-1.23282-3.33405-2.84106-5.3882-6.49119-6.249C34.52058,7.33459,36.52155,5.65065,37.38,2.65129Z"/>
          <path class="cls-1" d="M40.64144,2.12908A27.00474,27.00474,0,0,1,48.50759,5.0823c.65631.35892,1.982.4946,1.47882,1.65067A2.867,2.867,0,0,1,47.421,8.13883C46.22411,8.20236,41.11582,3.632,40.64144,2.12908Z"/>
        </g>
        <g>
          <path class="cls-1" d="M90.418,19.20166c0,7.58447-.72022,19.05762-4.84863,26.21a21.03074,21.03074,0,0,0-4.32032-3.456c3.6001-6.48047,3.84034-15.88965,3.84034-22.75391V3.88818h18.19336a19.28958,19.28958,0,0,0-1.15186-2.832L107.93949,0a28.76519,28.76519,0,0,1,1.68018,3.88818h16.51318V8.11279H90.418Zm30.33838,16.08105c.76806,1.29639,1.77637,3.02443,2.25635,4.08057a5.41618,5.41618,0,0,0,.0957-.96,13.35783,13.35783,0,0,0,3.93652,1.15186c-.38379,3.74462-1.728,4.75244-5.47265,4.75244h-8.06446c-5.32861,0-6.8164-.96-6.8164-4.46436V36.96289c-2.59229,3.64844-7.00879,6.43262-14.44971,8.353a14.245,14.245,0,0,0-2.87988-4.46436c6.67236-1.48828,10.46484-3.64844,12.67285-6.48047H93.106V21.88965h10.417a15.665,15.665,0,0,0,1.104-2.64014l5.04053.624a17.12933,17.12933,0,0,0-2.59228-2.92823,18.23545,18.23545,0,0,0,5.76074-2.97607h-3.64844V10.5127H114.564V8.64062h4.17627V10.5127H125.605v3.45654H120.3726a23.46962,23.46962,0,0,0,6.28857,3.6001,19.03573,19.03573,0,0,0-2.83252,3.07226,20.461,20.461,0,0,1-5.08837-3.64844V20.6416H114.564V16.80127a18.33807,18.33807,0,0,1-4.5127,3.07227l.19238.04785c-.48.67236-.96045,1.34423-1.48828,1.96826h14.40137V34.37109H116.628l1.92041.67188a17.426,17.426,0,0,1-1.87256,2.64014l2.59229-.38379c-.23975-.43213-.43164-.76807-.67188-1.15235ZM97.90629,17.08936a18.25732,18.25732,0,0,1-4.84814,3.50439A15.7331,15.7331,0,0,0,90.418,17.56934a18.825,18.825,0,0,0,5.95215-3.6001H91.8101V10.5127h6.09619V8.64062h4.08057V10.5127h5.76025v3.45654h-4.416c1.584.67187,3.792,1.68017,4.46435,2.064l-2.44824,2.73633a34.84042,34.84042,0,0,0-3.36035-2.44824V20.6416H97.90629Zm.04834,9.69677h6.96045c.09619-.57617.19189-1.15185.24023-1.728H97.95463Zm5.9043,4.41651c.19189-.57618.38427-1.15235.57617-1.77637H97.95463v1.77637Zm17.18554,9.937c1.248,0,1.728-.28809,1.96827-1.63233l-2.25635.96c-.144-.33594-.28809-.72022-.48-1.15186-5.37647.96-6.38477,1.20019-6.96045,1.584a25.56189,25.56189,0,0,0-.91211-2.68847,1.97371,1.97371,0,0,0,1.15185-.52783,11.7191,11.7191,0,0,0,2.16016-3.312h-7.48828c-.09619.23975-.24023.48-.33643.71973h3.69629v4.70459c0,1.2002.43213,1.34424,2.44825,1.34424Zm-3.02441-11.71338h-8.11279c-.14356.624-.2876,1.20019-.48,1.77637h8.59277Zm0-4.36816h-7.44043c-.04834.57617-.144,1.15185-.19189,1.728h7.63232Z"/>
          <path class="cls-1" d="M139.40971,22.99365a44.272,44.272,0,0,0-8.97656-5.18408l3.02392-4.27246a43.83087,43.83087,0,0,1,9.1211,4.7041Zm-7.29639,17.71387a132.01849,132.01849,0,0,0,9.07276-15.12158l4.22412,3.84033c-2.54395,4.99268-5.61621,10.46484-8.44873,15.12158ZM142.19389,10.273a45.20114,45.20114,0,0,0-8.92871-5.32861L136.38529.71973a46.21141,46.21141,0,0,1,9.1211,4.84863Zm27.3623,34.80273a21.58892,21.58892,0,0,0-1.63183-4.22412c-16.03369,1.91992-18.48194,2.3042-20.06592,3.12012a51.98483,51.98483,0,0,0-2.01611-5.7124c1.104-.33594,2.01611-1.34424,3.12011-3.07227a70.5723,70.5723,0,0,0,5.08838-10.273h-9.02441V19.5376h11.37695V12.769h-9.457V7.34473h9.457V.19189h5.80811V7.34473h9.793V12.769h-9.793V19.5376H173.7808v5.37646H160.72367A90.84947,90.84947,0,0,1,154.05082,37.251l11.28125-1.15186a54.92261,54.92261,0,0,0-3.21631-4.94433l4.65625-2.3042c3.16846,4.17627,6.67286,9.74462,7.9209,13.63281Z"/>
          <path class="cls-1" d="M223.0601,36.00293v5.76074H179.42436V36.00293h18.28955V11.18506H182.01664V5.23242h38.35547v5.95264H204.24272V36.00293Z"/>
          <path class="cls-1" d="M259.523,34.80273a137.15067,137.15067,0,0,1,12.625,6.14454L267.4434,45.124a101.70734,101.70734,0,0,0-13.96875-7.34472l2.64014-2.97657H241.76127l4.03272,2.88038A64.43217,64.43217,0,0,1,231.29643,45.124a42.46409,42.46409,0,0,0-4.17627-4.12841,52.96235,52.96235,0,0,0,12.57715-6.19288H227.88822V29.6665H235.377V2.44824h28.85059V29.6665h7.24854v5.13623ZM240.8975,6.96045V9.60059H258.419V6.96045ZM258.419,13.63281H240.8975v2.54444H258.419ZM240.8975,20.20947v2.64014H258.419V20.20947Zm0,9.457H258.419V26.88232H240.8975Z"/>
          <path class="cls-1" d="M306.0186,34.4668a56.16457,56.16457,0,0,0,14.78515,5.47265,21.28468,21.28468,0,0,0-3.55224,4.56006A55.387,55.387,0,0,1,300.78617,36.627V44.98h-5.66455V36.86719a55.90605,55.90605,0,0,1-16.56152,7.87256,31.21574,31.21574,0,0,0-3.69629-4.70459,60.37636,60.37636,0,0,0,15.36133-5.56836H276.44828V29.90625h18.67334V27.458h5.66455v2.44824H319.604V34.4668ZM281.77641,14.59326c-.86377.76807-1.728,1.48779-2.59229,2.208a16.55428,16.55428,0,0,0-4.03222-3.74413A38.11823,38.11823,0,0,0,286.52885.19189l5.80859,1.104q-1.08032,1.80029-2.3042,3.60058h7.77686a32.6045,32.6045,0,0,0-1.48828-3.45654L301.45805,0a30.09177,30.09177,0,0,1,2.3042,4.89648h13.48926V9.26465H302.61039v2.01611h12.481v3.69629h-12.481v1.92041h12.5293v3.69629h-12.5293v2.1123h15.79346v4.32032H287.441v1.2959h-5.66455Zm15.36133-5.32861H287.441v2.01611h9.69678Zm0,5.7124H287.441v1.92041h9.69678Zm0,5.6167H287.441v2.1123h9.69678Z"/>
        </g>
        <g>
          <path class="cls-1" d="M100.99516,55.84131a8.81147,8.81147,0,0,1-.34766,2.96583,30.27732,30.27732,0,0,1-1.78515,3.25,22.66509,22.66509,0,0,1-2.00293,3.03075,2.67088,2.67088,0,0,1-1.80567.39258,8.06241,8.06241,0,0,1-1.5039-.08545,1.10616,1.10616,0,0,1-.47754-.27441,19.096,19.096,0,0,1-2.39746-3.76514,26.38556,26.38556,0,0,1-2.36036,3.75439q-.32812.35523-1.792.35157a6.58077,6.58077,0,0,1-1.33984-.085Q84.5,65.18385,82.879,62.4043a33.02171,33.02171,0,0,1-1.8916-3.64063,8.67856,8.67856,0,0,1-.34961-2.96777,19.31755,19.31755,0,0,1,.14355-3.08936.44679.44679,0,0,1,.47949-.35449q.62843.00147,1.88672.04492,1.2583.044,1.88672.04541.31494.00073.31348.45215-.00147.397-.03028,1.20947-.0293.81372-.03027,1.21-.00292,1.65454.07715,2.44776a6.16806,6.16806,0,0,0,.72754,1.53955q.70166,1.23926.86621,1.23926.24609.00074.9043-1.21485a11.57,11.57,0,0,0,.70117-1.523,10.73062,10.73062,0,0,0,.16894-2.46728q.00147-.41016-.07226-1.22363-.07325-.81372-.07227-1.21045c.001-.28223.10547-.42334.31543-.42285q.38232.00072,1.51758-.01026l.56055-.01269a.25656.25656,0,0,1-.04786-.00684c-.02246-.00439-.02929-.002-.0205.00684h.0957l.35547.001q.52-.01172,1.51758.03076c.20019.02784.30078.16944.2998.42432q-.00147.52-.07226,1.5791-.07032,1.05982-.07129,1.5791a8.2616,8.2616,0,0,0,.10547,1.76368,12.692,12.692,0,0,0,.65234,1.4917q.6123,1.23192.85937,1.23242.2461.00073.918-1.24219a6.02017,6.02017,0,0,0,.6875-1.55713q.05566-.51855.06543-4.83935c.001-.31885.0918-.47852.27442-.478q.62841.00145,1.89355-.03662,1.26416-.03882,1.89356-.03711a.4451.4451,0,0,1,.46386.38379A17.65771,17.65771,0,0,1,100.99516,55.84131Z"/>
          <path class="cls-1" d="M117.28129,59.17236q-.00292.9983.03418,2.97412.03661,1.97609.03418,2.96,0,.2871-.34277.34082a15.81982,15.81982,0,0,1-2.0918.07763,16.08077,16.08077,0,0,1-2.10547-.08691c-.20019-.03662-.32324-.09619-.36816-.17871a1.51521,1.51521,0,0,1-.02637-.41016q.00147-.94337.04687-2.83691.04542-1.89258.04786-2.8501a50.07889,50.07889,0,0,0-.28711-6.18066,2.49547,2.49547,0,0,1-.02637-.28711q0-.27319.36914-.27246.38232.00072,1.16895.08447.78515.08423,1.18261.085.39551.00073,1.18946-.06592.79248-.06664,1.18945-.06592.32813.00073.32812.27442c-.001.03662-.00976.123-.02832.25976A55.58535,55.58535,0,0,0,117.28129,59.17236Zm.37793-10.15722q-.00587,2.3789-2.68457,2.373a2.94688,2.94688,0,0,1-1.89941-.60595,2.28183,2.28183,0,0,1,.03515-3.52735,2.88859,2.88859,0,0,1,1.874-.62451,2.81264,2.81264,0,0,1,1.84472.64649A2.14979,2.14979,0,0,1,117.65922,49.01514Z"/>
          <path class="cls-1" d="M140.09477,65.67676a12.77,12.77,0,0,1-1.3125-.09864q-.917-.09813-1.29883-.1123-.88915-.02929-2.83008-.03368-2.24268-.00515-3.17187.04735-.1919.01319-.957.08008a9.09447,9.09447,0,0,1-.9707.06641c-.16406-.00049-.24609-.11524-.24609-.34278q-.01319-.34131.00293-.916.02783-.66943.02929-.90186a4.893,4.893,0,0,0-.08789-.76611,4.81458,4.81458,0,0,1-.08691-.73828.49031.49031,0,0,1,.20605-.355,62.5289,62.5289,0,0,0,5.124-4.856q-.31494-.00073-.957-.0293-.64307-.02856-.97071-.02978-.49218-.00073-1.49707.04443-1.00488.04614-1.49707.04492c-.15527-.00048-.23242-.05566-.23242-.165a11.331,11.331,0,0,1,.42774-1.83789,9.484,9.484,0,0,0,.42968-2.26172q0-.23217.47852-.23095.041,0,1.627.18115,1.3125.13989,3.55371.14453.73828.00147,2.208-.02246,1.47071-.02343,2.209-.02246c.30079.001.4502.12891.4502.38379l-.00684,2.95312q-.00145.46509-5.22168,5.52588a35.3858,35.3858,0,0,0,5.46973-.26123.94254.94254,0,0,1,.17774-.02734c.12695.00049.1914.05078.1914.15088a14.23512,14.23512,0,0,0-.5791,2.15918q-.09814.65551-.333,1.94043A.32.32,0,0,1,140.09477,65.67676Z"/>
          <path class="cls-1" d="M166.083,58.7207q-.00292,1.05322.11523,3.13135.11865,2.07861.11621,3.11719,0,.54711-.47949.58691-1.69629.11938-3.88281.11426-.26075,0-.34668-.78662-.08788-.7859-.21094-.80029a1.25758,1.25758,0,0,0-.28711.23193,4.58212,4.58212,0,0,1-3.28515,1.5376,5.49941,5.49941,0,0,1-4.41114-2.11573,7.07469,7.07469,0,0,1-1.64355-4.70654,7.38668,7.38668,0,0,1,1.71973-5.082,6.18555,6.18555,0,0,1,4.87207-1.98535,4.16989,4.16989,0,0,1,3.38769,1.51123c.03516.04639.06738.06885.09473.06885.082,0,.17578-.22022.28222-.6626q.15821-.66211.377-.66211a11.96628,11.96628,0,0,1,1.92773.2915,19.6315,19.6315,0,0,1,1.94043.46924c.13672.05469.2041.12793.2041.21875a2.44511,2.44511,0,0,1-.041.28711A29.99128,29.99128,0,0,0,166.083,58.7207Zm-4.40332.07227a2.65487,2.65487,0,0,0-.72656-1.92236,2.77689,2.77689,0,0,0-3.80762-.01563,2.8302,2.8302,0,0,0,.03223,3.82861,2.48562,2.48562,0,0,0,1.85742.79688,2.5347,2.5347,0,0,0,1.90234-.7544A2.65683,2.65683,0,0,0,161.67973,58.793Z"/>
          <path class="cls-1" d="M187.53324,57.08691c0,.35547-.19726.53272-.58886.53223q-.25927-.00073-.75879-.03613c-.333-.023-.58106-.03565-.74512-.03565a2.43569,2.43569,0,0,0-1.54492.35205,1.88566,1.88566,0,0,0-.41406,1.43457q-.00147.58814.0166,1.78418.01758,1.19679.0166,1.78418,0,.397.05176,1.18262.05272.78663.05273,1.169-.00147.32813-.45215.36816-.65625.05274-2.00976.05029-1.29932-.00292-2.07813-.08642-.45117-.05567-.45019-.45215.00292-1.0935.02148-3.27441.01758-2.18043.02051-3.27442a19.86793,19.86793,0,0,0-.57617-5.29248.88936.88936,0,0,1-.02637-.20508.26739.26739,0,0,1,.20508-.273q.75145-.08056,2.20215-.2959,2.16064-.4182,2.22949-.41894.24609.00073.3125.8623.06591.86133.24414.86182-.1919-.00073,1.123-.71533a5.271,5.271,0,0,1,2.53027-.7124q.76611.00219.76465.33007a10.50148,10.50148,0,0,1-.084,1.12061q-.08349.7793-.09863,1.12109c0,.26465.00293.61524.01172,1.05274C187.52543,56.55859,187.53422,56.91406,187.53324,57.08691Z"/>
          <path class="cls-1" d="M213.31156,46.26172q0-.3003-.11132.90185-.15528,1.51758-.24121,3.88233-.11573,2.67993-.12305,6.09765a70.05515,70.05515,0,0,0,.29687,8.03956q.02637.26.02637.32812c0,.10059-.06934.15918-.20605.17725q-.49219.06738-3.62305.06054-.73828-.00145-.84668-.28906l-.05274-1.03906a.41707.41707,0,0,0-.10839-.21924.91.91,0,0,0-.20606.16357,5.055,5.055,0,0,1-3.69433,1.44092,5.7815,5.7815,0,0,1-4.61622-2.03369,7.20269,7.20269,0,0,1-1.64355-4.8706,7.34348,7.34348,0,0,1,1.6377-4.90479,5.75688,5.75688,0,0,1,4.65332-2.04053,4.04584,4.04584,0,0,1,3.21,1.31983c.12695.14648.21777.21924.27246.21924.082.00048.124-.11768.124-.355q.00292-1.05249-.04785-3.14453-.0498-2.0918-.04785-3.13134.00145-.39624.21972-.45069.87452-.03882,2.40723-.15869a20.44358,20.44358,0,0,0,2.4209-.33642C213.212,45.91943,213.31156,46.03418,213.31156,46.26172ZM208.129,58.81445a2.70214,2.70214,0,0,0-.74805-1.895,2.38726,2.38726,0,0,0-1.81641-.81738,2.183,2.183,0,0,0-1.78613.80908,2.98735,2.98735,0,0,0-.667,1.94678,2.73884,2.73884,0,0,0,.666,1.87451,2.20337,2.20337,0,0,0,1.7754.82472,2.368,2.368,0,0,0,1.834-.81642A2.7916,2.7916,0,0,0,208.129,58.81445Z"/>
          <path class="cls-1" d="M234.7393,55.18262a4.32355,4.32355,0,0,1-.19434,1.10693q-.16553.54639-.31738,1.10645-.05566.68407-.26367,1.98193-.041.19189-.32813.19092-.52-.00147-1.56543-.01709-1.04589-.01611-1.5791-.01758a38.17493,38.17493,0,0,0-3.85644.25146q-.1377.01318-.73828.10743a4.71241,4.71241,0,0,1-.752.08056q-.35595-.00073-.35449-.6709a11.46033,11.46033,0,0,1,.46973-1.98095,18.91273,18.91273,0,0,1,.66015-1.99463.3536.3536,0,0,1,.35645-.21826q.53321.00145,1.59961.0581,1.06494.05787,1.59863.0586a33.66974,33.66974,0,0,0,3.70605-.31983q1.35352-.17432,1.27247-.17529C234.64457,54.731,234.7393,54.88184,234.7393,55.18262Z"/>
          <path class="cls-1" d="M255.66606,61.75049a11.39972,11.39972,0,0,1-.10547,1.24414,11.3975,11.3975,0,0,0-.10547,1.22363.96613.96613,0,0,1-.083.49854,1.6514,1.6514,0,0,1-.45215.31347,7.96422,7.96422,0,0,1-3.91211.96192q-3.95214-.00879-3.94433-3.03028.00145-.90234.07422-2.71386.07177-1.81054.07421-2.71338.00147-.60132-.69531-.603c-.03711-.00049-.0957-.00049-.17773-.00049-.082.00879-.1416.01319-.17774.01319q-.52-.00147-.51953-.37012.00147-.21826.03614-.66992.03514-.45117.03515-.66992.00147-.28712-.03223-.875-.03222-.58741-.03222-.875.00145-.2732.876-.29883.49219-.01245.53418-.27246a10.16755,10.16755,0,0,0,.0586-1.64063q-.05127-1.76367-.05176-1.68164.00439-1.5857.30469-1.58545a4.9222,4.9222,0,0,1,1.05273.16651,9.64827,9.64827,0,0,0,1.0791.20751q.69727.09742,2.10547.26465c.22754.01905.34082.09619.34082.23291q-.00146.54713-.09277,1.6543-.09083,1.10742-.09277,1.668-.00147.67017.3955.67041.47754.00147,1.44922-.0376.97119-.03882,1.46289-.0376c.2002.00049.30078.06885.30078.20557q-.00145.31494-.07128.94336-.06885.62841-.07032.94287,0,.32813.01172.957.01171.62916.01172.95752,0,.28712-.39746.28613c-.18262-.00048-.48731-.0083-.916-.02246-.42871-.01465-.73339-.02246-.916-.023l-1.02539-.002q-.20508-.00073-.20606.60107,0,.32814-.002.97071.01172.65625.01172.9707a3.37528,3.37528,0,0,0,.25586,1.58643,1.58226,1.58226,0,0,0,1.44824.59131,4.41025,4.41025,0,0,0,.97754-.15528,4.41166,4.41166,0,0,1,.89551-.15527Q255.66605,61.45,255.66606,61.75049Z"/>
          <path class="cls-1" d="M279.92192,59.084a6.90983,6.90983,0,0,1-1.91895,5.0542,7.39544,7.39544,0,0,1-9.96.00537,6.61579,6.61579,0,0,1-1.93066-4.92626,7.208,7.208,0,0,1,1.87109-5.14307,6.57644,6.57644,0,0,1,5.03613-1.96436,6.729,6.729,0,0,1,4.999,1.94532A6.83653,6.83653,0,0,1,279.92192,59.084Zm-4.48438-.00976a2.94342,2.94342,0,0,0-.666-1.90869,2.13092,2.13092,0,0,0-1.73438-.83106,2.20066,2.20066,0,0,0-1.7793.84375,3.05992,3.05992,0,0,0-.00781,3.78711,2.27289,2.27289,0,0,0,3.541.00781A2.92891,2.92891,0,0,0,275.43754,59.07422Z"/>
          <path class="cls-1" d="M304.38969,59.13867a6.90522,6.90522,0,0,1-1.918,5.0542,7.39682,7.39682,0,0,1-9.96.00537A6.60839,6.60839,0,0,1,290.5811,59.272a7.20578,7.20578,0,0,1,1.87109-5.14355,6.57917,6.57917,0,0,1,5.03516-1.96436,6.73166,6.73166,0,0,1,5,1.9458A6.83977,6.83977,0,0,1,304.38969,59.13867Zm-4.48438-.01025a2.94785,2.94785,0,0,0-.665-1.90869,2.13357,2.13357,0,0,0-1.73438-.83106,2.20075,2.20075,0,0,0-1.7793.84375,3.05812,3.05812,0,0,0-.00879,3.78711,2.2733,2.2733,0,0,0,3.541.0083A2.92044,2.92044,0,0,0,299.90531,59.12842Z"/>
          <path class="cls-1" d="M320.68656,57.6709q-.00879,3.73242.01465,5.72851-.00146.315.03809,1.08057.03956.69726.03906,1.08008-.00147.2871-.34277.34082a14.8615,14.8615,0,0,1-2.21485.10449,11.86065,11.86065,0,0,1-2.09179-.11377.4062.4062,0,0,1-.34082-.37012q0-.041.001-.58789.00294-1.21655.03614-3.64355.03222-2.42652.03515-3.62988.01318-5.74219.02539-5.23633a43.51868,43.51868,0,0,0-.33008-5.20947,1.36239,1.36239,0,0,1-.02734-.23243c.001-.20019.11914-.30078.35645-.30029l4.88086.01123q.3413.00073.31347.2876l-.01367.24609Q320.69634,53.13208,320.68656,57.6709Z"/>
        </g>
      </g>
    </g>
  </g>
</svg>
